<svg xmlns="http://www.w3.org/2000/svg" viewBox="0 0 200 310" width="64" height="64">
  <rect width="200" height="310" rx="20" fill="#1a73e8"/>
  <g stroke="#ffffff" stroke-width="5" stroke-linecap="round" stroke-linejoin="round" fill="none">
    <!-- Rumpf -->
    <line x1="70"  y1="130" x2="70"  y2="230"/>
    <line x1="70"  y1="130" x2="130" y2="130"/>
    <line x1="130" y1="130" x2="130" y2="230"/>
    <line x1="70"  y1="230" x2="130" y2="230"/>
    <!-- Spitze -->
    <line x1="70"  y1="130" x2="100" y2="30"/>
    <line x1="130" y1="130" x2="100" y2="30"/>
    <!-- Düsen -->
    <path d="M73,230  L73,255  L89,255  L89,230"/>
    <path d="M92,230  L92,255  L108,255 L108,230"/>
    <path d="M111,230 L111,255 L127,255 L127,230"/>
    <!-- Flossen -->
    <polygon points="70,165 30,215 70,215"/>
    <polygon points="130,165 170,215 130,215"/>
    <!-- Fenster -->
    <circle cx="100" cy="175" r="16"/>
    <!-- Flammen -->
    <path d="M81,255  Q77,265 81,273  Q85,281 81,295"  stroke="#ffd700"/>
    <path d="M100,255 Q96,265 100,273 Q104,281 100,295" stroke="#ffd700"/>
    <path d="M119,255 Q115,265 119,273 Q123,281 119,295" stroke="#ffd700"/>
  </g>
</svg>
